<?xml version="1.0" encoding="UTF-8" standalone="no"?>
<svg
   viewBox="0 0 106.49 79.82"
   version="1.1"
   id="svg216"
   sodipodi:docname="qPCR_plot.svg"
   inkscape:version="1.2.2 (732a01da63, 2022-12-09)"
   xmlns:inkscape="http://www.inkscape.org/namespaces/inkscape"
   xmlns:sodipodi="http://sodipodi.sourceforge.net/DTD/sodipodi-0.dtd"
   xmlns="http://www.w3.org/2000/svg"
   xmlns:svg="http://www.w3.org/2000/svg">
  <sodipodi:namedview
     id="namedview218"
     pagecolor="#505050"
     bordercolor="#eeeeee"
     borderopacity="1"
     inkscape:showpageshadow="0"
     inkscape:pageopacity="0"
     inkscape:pagecheckerboard="0"
     inkscape:deskcolor="#505050"
     showgrid="false"
     inkscape:zoom="4.723127"
     inkscape:cx="68.175173"
     inkscape:cy="48.484828"
     inkscape:window-width="1920"
     inkscape:window-height="986"
     inkscape:window-x="-11"
     inkscape:window-y="-11"
     inkscape:window-maximized="1"
     inkscape:current-layer="svg216"
     showguides="false" />
  <defs
     id="defs178">
    <style
       id="style176">.cls-1,.cls-2,.cls-3,.cls-4,.cls-5,.cls-6,.cls-7{fill:none;stroke-miterlimit:10;}.cls-1{stroke:#74bc3c;}.cls-1,.cls-2,.cls-3,.cls-4,.cls-5,.cls-6{stroke-width:0.75px;}.cls-2{stroke:#bcb64d;}.cls-3{stroke:#87bfcc;}.cls-4{stroke:#7676a5;}.cls-5,.cls-6,.cls-7{stroke:#000;}.cls-6{stroke-dasharray:2.97 2.97;}</style>
  </defs>
  <g
     id="g341"
     inkscape:export-filename="qPCR_plot.png"
     inkscape:export-xdpi="200"
     inkscape:export-ydpi="200"
     transform="matrix(1.317335,0,0,1.317335,-35.760933,-19.841833)"
     style="stroke-width:0.759109">
    <rect
       style="fill:#ffffff;stroke:none;stroke-width:0.573814;stroke-linecap:round;stroke-linejoin:round;stroke-miterlimit:10"
       id="rect338"
       width="184.41173"
       height="109.46138"
       x="-14.185517"
       y="-4.2344828" />
    <g
       id="Layer_2"
       data-name="Layer 2"
       transform="translate(0.42344511)"
       style="stroke-width:0.759109">
      <g
         id="Neurons"
         style="stroke-width:0.759109">
        <path
           class="cls-1"
           d="m 1.6,79.12 h 15.55 c 5.4,0 10.21,-7.43 12,-18.54 l 6.29,-38.92 c 1.79,-11.11 6.61,-18.55 12,-18.55 h 10.74"
           id="path180" />
        <path
           class="cls-1"
           d="m 3.55,79.12 h 15.54 c 5.4,0 10.22,-7.43 12,-18.54 l 6.29,-38.92 c 1.8,-11.11 6.61,-18.55 12,-18.55 h 10.74"
           id="path182" />
        <path
           class="cls-1"
           d="m 5.39,79.12 h 15.55 c 5.4,0 10.22,-7.43 12,-18.54 l 6.29,-38.92 c 1.8,-11.11 6.61,-18.55 12,-18.55 H 62"
           id="path184" />
        <path
           class="cls-2"
           d="m 46.12,79.12 h 15.54 c 5.41,0 10.22,-7.43 12,-18.54 L 80,21.66 C 81.8,10.55 86.62,3.11 92,3.11 h 10.71"
           id="path186" />
        <path
           class="cls-2"
           d="m 48.06,79.12 h 15.55 c 5.4,0 10.22,-7.43 12,-18.54 L 81.9,21.66 C 83.7,10.55 88.51,3.11 93.9,3.11 h 10.72"
           id="path188" />
        <path
           class="cls-2"
           d="m 49.91,79.12 h 15.55 c 5.4,0 10.22,-7.43 12,-18.54 l 6.29,-38.92 c 1.79,-11.11 6.61,-18.55 12,-18.55 h 10.72"
           id="path190" />
        <path
           class="cls-3"
           d="m 15.5,79.12 h 15.55 c 5.4,0 10.21,-7.43 12,-18.54 L 49.34,21.66 C 51.14,10.55 56,3.11 61.36,3.11 h 10.72"
           id="path192" />
        <path
           class="cls-3"
           d="m 17.84,79.12 h 15.55 c 5.4,0 10.22,-7.43 12,-18.54 l 6.29,-38.92 c 1.8,-11.11 6.61,-18.55 12,-18.55 h 10.74"
           id="path194" />
        <path
           class="cls-3"
           d="m 19.73,79.12 h 15.54 c 5.41,0 10.22,-7.43 12,-18.54 l 6.28,-38.92 c 1.8,-11.11 6.61,-18.55 12,-18.55 H 76.3"
           id="path196" />
        <path
           class="cls-4"
           d="m 30.91,79.12 h 15.54 c 5.41,0 10.22,-7.43 12,-18.54 l 6.29,-38.92 c 1.79,-11.11 6.61,-18.55 12,-18.55 h 10.75"
           id="path198" />
        <path
           class="cls-4"
           d="M 33.25,79.12 H 48.8 c 5.4,0 10.21,-7.43 12,-18.54 L 67.1,21.66 C 68.89,10.55 73.71,3.11 79.1,3.11 h 10.73"
           id="path200" />
        <path
           class="cls-4"
           d="m 35.74,79.12 h 15.55 c 5.4,0 10.22,-7.43 12,-18.54 l 6.29,-38.92 c 1.8,-11.11 6.61,-18.55 12,-18.55 h 10.74"
           id="path202" />
        <line
           class="cls-5"
           x1="0.5"
           y1="65.290001"
           x2="2"
           y2="65.290001"
           id="line204" />
        <line
           class="cls-6"
           x1="4.9699998"
           y1="65.290001"
           x2="98.5"
           y2="65.290001"
           id="line206" />
        <line
           class="cls-5"
           x1="99.980003"
           y1="65.290001"
           x2="101.48"
           y2="65.290001"
           id="line208" />
        <line
           class="cls-7"
           x1="0.5"
           x2="0.5"
           y2="79.650002"
           id="line210"
           y1="0"
           style="stroke-width:0.759109" />
        <line
           class="cls-7"
           x1="101.39"
           y1="79.32"
           x2="0.5"
           y2="79.32"
           id="line212"
           style="stroke-width:0.759109" />
      </g>
    </g>
    <text
       xml:space="preserve"
       style="font-style:normal;font-weight:normal;font-size:8.57891px;line-height:1.25;font-family:sans-serif;fill:#000000;fill-opacity:1;stroke:none;stroke-width:0.759109"
       x="41.171272"
       y="102.42078"
       id="text432"><tspan
         sodipodi:role="line"
         id="tspan430"
         x="41.171272"
         y="102.42078"
         style="stroke-width:0.759109">Ciclos</tspan></text>
    <text
       xml:space="preserve"
       style="font-style:normal;font-weight:normal;font-size:8.57891px;line-height:1.25;font-family:sans-serif;fill:#000000;fill-opacity:1;stroke:none;stroke-width:0.759109"
       x="107.98387"
       y="68.405083"
       id="text432-9"><tspan
         sodipodi:role="line"
         id="tspan430-2"
         x="107.98387"
         y="68.405083"
         style="stroke-width:0.759109">Umbral</tspan></text>
    <text
       xml:space="preserve"
       style="font-style:normal;font-weight:normal;font-size:5.55117px;line-height:1.25;font-family:sans-serif;baseline-shift:baseline;fill:#000000;fill-opacity:1;stroke:none;stroke-width:0.759109"
       x="117.13624"
       y="21.350033"
       id="text432-9-0"><tspan
         sodipodi:role="line"
         id="tspan430-2-1"
         x="117.13624"
         y="21.350033"
         style="baseline-shift:baseline;stroke-width:0.759109">C<tspan
   style="baseline-shift:baseline;stroke-width:0.759109"
   id="tspan1478"><tspan
   style="font-size:3.60826px;baseline-shift:sub;stroke-width:0.759109"
   id="tspan1480">T</tspan>:Ciclo donde </tspan></tspan><tspan
         sodipodi:role="line"
         x="117.13624"
         y="28.288996"
         style="baseline-shift:baseline;stroke-width:0.759109"
         id="tspan1482"><tspan
           style="baseline-shift:baseline;stroke-width:0.759109"
           id="tspan1484">la fluorescencia </tspan></tspan><tspan
         sodipodi:role="line"
         x="117.13624"
         y="35.227959"
         style="baseline-shift:baseline;stroke-width:0.759109"
         id="tspan1486"><tspan
           style="baseline-shift:baseline;stroke-width:0.759109"
           id="tspan1488">supera el umbral </tspan></tspan></text>
    <path
       style="fill:none;stroke:#000000;stroke-width:0.759109px;stroke-linecap:butt;stroke-linejoin:miter;stroke-opacity:1"
       d="m 10.692069,79.343621 v 3.916897"
       id="path547" />
    <path
       style="fill:none;stroke:#000000;stroke-width:0.759109px;stroke-linecap:butt;stroke-linejoin:miter;stroke-opacity:1"
       d="m 36.451839,79.343621 v 3.916898"
       id="path547-4" />
    <path
       style="fill:none;stroke:#000000;stroke-width:0.759109px;stroke-linecap:butt;stroke-linejoin:miter;stroke-opacity:1"
       d="m 62.211609,79.343621 v 3.916897"
       id="path547-7" />
    <path
       style="fill:none;stroke:#000000;stroke-width:0.759109px;stroke-linecap:butt;stroke-linejoin:miter;stroke-opacity:1"
       d="m 87.971379,79.343621 v 3.916897"
       id="path547-2" />
    <path
       style="fill:none;stroke:#000000;stroke-width:0.759105px;stroke-linecap:butt;stroke-linejoin:miter;stroke-opacity:1"
       d="M 23.924828,78.973103 V 87.02926"
       id="path549" />
    <path
       style="fill:none;stroke:#000000;stroke-width:0.759105px;stroke-linecap:butt;stroke-linejoin:miter;stroke-opacity:1"
       d="M 99.707908,78.973103 V 87.02926"
       id="path549-2" />
    <path
       style="fill:none;stroke:#000000;stroke-width:0.759105px;stroke-linecap:butt;stroke-linejoin:miter;stroke-opacity:1"
       d="M 49.185855,78.973103 V 87.02926"
       id="path549-1" />
    <path
       style="fill:none;stroke:#000000;stroke-width:0.759105px;stroke-linecap:butt;stroke-linejoin:miter;stroke-opacity:1"
       d="M 74.446881,78.973103 V 87.02926"
       id="path549-9" />
    <text
       xml:space="preserve"
       style="font-style:normal;font-weight:normal;font-size:6.07516px;line-height:1.25;font-family:sans-serif;fill:#000000;fill-opacity:1;stroke:none;stroke-width:0.759108"
       x="20.249891"
       y="92.033943"
       id="text697"><tspan
         sodipodi:role="line"
         id="tspan695"
         x="20.249891"
         y="92.033943"
         style="stroke-width:0.759108">10</tspan></text>
    <text
       xml:space="preserve"
       style="font-style:normal;font-weight:normal;font-size:6.07516px;line-height:1.25;font-family:sans-serif;fill:#000000;fill-opacity:1;stroke:none;stroke-width:0.759108"
       x="45.352837"
       y="92.033943"
       id="text697-5"><tspan
         sodipodi:role="line"
         id="tspan695-9"
         x="45.352837"
         y="92.033943"
         style="stroke-width:0.759108">20</tspan></text>
    <text
       xml:space="preserve"
       style="font-style:normal;font-weight:normal;font-size:6.07516px;line-height:1.25;font-family:sans-serif;fill:#000000;fill-opacity:1;stroke:none;stroke-width:0.759108"
       x="70.45578"
       y="92.033943"
       id="text697-8"><tspan
         sodipodi:role="line"
         id="tspan695-3"
         x="70.45578"
         y="92.033943"
         style="stroke-width:0.759108">30</tspan></text>
    <text
       xml:space="preserve"
       style="font-style:normal;font-weight:normal;font-size:6.07516px;line-height:1.25;font-family:sans-serif;fill:#000000;fill-opacity:1;stroke:none;stroke-width:0.759108"
       x="95.558723"
       y="92.033943"
       id="text697-0"><tspan
         sodipodi:role="line"
         id="tspan695-2"
         x="95.558723"
         y="92.033943"
         style="stroke-width:0.759108">40</tspan></text>
    <text
       xml:space="preserve"
       style="font-size:9.18729px;line-height:1.25;font-family:sans-serif;writing-mode:tb-rl;stroke-width:0.759109"
       x="7.3348212"
       y="-68.346481"
       id="text762"
       transform="scale(-1)"><tspan
         sodipodi:role="line"
         id="tspan760"
         x="7.3348212"
         y="-68.346481"
         style="stroke-width:0.759109">Fluorescencia</tspan></text>
    <path
       style="fill:none;stroke:#000000;stroke-width:0.573814;stroke-linecap:round;stroke-linejoin:miter;stroke-dasharray:none;stroke-opacity:1"
       d="m 34.29931,63.517241 80.24345,-42.98"
       id="path791" />
    <path
       style="fill:none;stroke:#000000;stroke-width:0.573814;stroke-linecap:round;stroke-linejoin:miter;stroke-dasharray:none;stroke-opacity:1"
       d="M 47.426207,64.787586 114.11931,20.96069"
       id="path793" />
    <path
       style="fill:none;stroke:#000000;stroke-width:0.573814;stroke-linecap:round;stroke-linejoin:miter;stroke-dasharray:none;stroke-opacity:1"
       d="M 63.728965,64.364138 114.54275,20.537242"
       id="path795"
       sodipodi:nodetypes="cc" />
    <path
       style="fill:none;stroke:#000000;stroke-width:0.573814;stroke-linecap:round;stroke-linejoin:miter;stroke-dasharray:none;stroke-opacity:1"
       d="M 77.702759,64.787586 114.64862,20.643103"
       id="path799"
       sodipodi:nodetypes="cc" />
  </g>
</svg>
